<svg xmlns="http://www.w3.org/2000/svg" width="1080" height="900" viewBox="0 0 1080 900">
  <defs>
    <linearGradient id="bg" x1="0" y1="0" x2="1" y2="1">
      <stop offset="0%" stop-color="#0b1735"/>
      <stop offset="58%" stop-color="#2158d6"/>
      <stop offset="100%" stop-color="#79c12f"/>
    </linearGradient>
    <linearGradient id="panel" x1="0" y1="0" x2="1" y2="1">
      <stop offset="0%" stop-color="#ffffff" stop-opacity="0.20"/>
      <stop offset="100%" stop-color="#ffffff" stop-opacity="0.08"/>
    </linearGradient>
    <filter id="shadow" x="-20%" y="-20%" width="140%" height="140%">
      <feDropShadow dx="0" dy="12" stdDeviation="20" flood-color="#091124" flood-opacity="0.25"/>
    </filter>
  </defs>
  <rect width="1080" height="900" rx="44" fill="url(#bg)"/>
  <circle cx="936" cy="150" r="120" fill="#ffffff" opacity="0.10"/>
  <circle cx="976" cy="728" r="170" fill="#ffffff" opacity="0.08"/>
  <circle cx="150" cy="780" r="110" fill="#ffffff" opacity="0.05"/>
  <rect x="72" y="72" width="370" height="56" rx="28" fill="#ffffff" opacity="0.14"/>
  <text x="112" y="109" font-family="Arial, Helvetica, sans-serif" font-size="26" font-weight="700" letter-spacing="3" fill="#ffffff">ANGFAN BRAND SHOP</text>
  <text x="88" y="226" font-family="Arial, Helvetica, sans-serif" font-size="78" font-weight="800" fill="#ffffff">SHOP SMART</text>
  <text x="88" y="312" font-family="Arial, Helvetica, sans-serif" font-size="78" font-weight="800" fill="#ffffff">CHOOSE BETTER</text>
  <text x="88" y="392" font-family="Arial, Helvetica, sans-serif" font-size="30" fill="#eaf2ff">Selected printer supplies with clean product pages,</text>
  <text x="88" y="436" font-family="Arial, Helvetica, sans-serif" font-size="30" fill="#eaf2ff">simple browsing, and a smooth shopping experience.</text>

  <rect x="88" y="500" width="330" height="84" rx="42" fill="#ffffff"/>
  <text x="156" y="554" font-family="Arial, Helvetica, sans-serif" font-size="34" font-weight="800" fill="#111827">SHOP NOW</text>
  <rect x="88" y="614" width="270" height="72" rx="36" fill="#ffffff" opacity="0.15"/>
  <text x="134" y="659" font-family="Arial, Helvetica, sans-serif" font-size="26" font-weight="700" fill="#ffffff">Fast Product Search</text>
  <rect x="376" y="614" width="250" height="72" rx="36" fill="#ffffff" opacity="0.15"/>
  <text x="420" y="659" font-family="Arial, Helvetica, sans-serif" font-size="26" font-weight="700" fill="#ffffff">Easy Checkout</text>

  <g filter="url(#shadow)">
    <rect x="676" y="120" width="310" height="420" rx="26" fill="#ffffff"/>
    <rect x="706" y="160" width="250" height="170" rx="18" fill="#f7f9fe" stroke="#dce5f4"/>
    <rect x="718" y="178" width="226" height="18" rx="9" fill="#2a61ea" opacity="0.12"/>
    <rect x="718" y="208" width="190" height="18" rx="9" fill="#2a61ea" opacity="0.12"/>
    <rect x="718" y="250" width="78" height="78" rx="14" fill="#0d172d"/>
    <rect x="812" y="250" width="132" height="16" rx="8" fill="#c7d7f7"/>
    <rect x="812" y="278" width="110" height="14" rx="7" fill="#dde7fb"/>
    <rect x="812" y="306" width="76" height="18" rx="9" fill="#79c12f"/>
    <rect x="706" y="360" width="250" height="120" rx="20" fill="#f8fbff" stroke="#dce5f4"/>
    <text x="735" y="404" font-family="Arial, Helvetica, sans-serif" font-size="24" font-weight="700" fill="#0f172a">Featured Selection</text>
    <text x="735" y="442" font-family="Arial, Helvetica, sans-serif" font-size="20" fill="#5b6b84">Clean pages • Trusted layout</text>
  </g>

  <g filter="url(#shadow)">
    <rect x="590" y="560" width="196" height="220" rx="24" fill="url(#panel)" stroke="#ffffff" stroke-opacity="0.22"/>
    <rect x="822" y="560" width="196" height="220" rx="24" fill="url(#panel)" stroke="#ffffff" stroke-opacity="0.22"/>
    <text x="626" y="630" font-family="Arial, Helvetica, sans-serif" font-size="28" font-weight="700" fill="#ffffff">Organized</text>
    <text x="626" y="670" font-family="Arial, Helvetica, sans-serif" font-size="24" fill="#edf3ff">Shopping Pages</text>
    <text x="858" y="630" font-family="Arial, Helvetica, sans-serif" font-size="28" font-weight="700" fill="#ffffff">Customer</text>
    <text x="858" y="670" font-family="Arial, Helvetica, sans-serif" font-size="24" fill="#edf3ff">Service Ready</text>
  </g>
</svg>